HIERARCHY
ROOT Hips
{
 OFFSET 0.000000 0.000000 0.000000
 CHANNELS 6 Xposition Yposition Zposition Yrotation Xrotation Zrotation
 JOINT Chest
 {
  OFFSET 0.000000 9.585900 0.002600
  CHANNELS 3 Yrotation Xrotation Zrotation
  JOINT Chest2
  {
   OFFSET 0.000000 9.601200 -0.005300
   CHANNELS 3 Yrotation Xrotation Zrotation
   JOINT Chest3
   {
    OFFSET 0.000000 9.561800 0.000000
    CHANNELS 3 Yrotation Xrotation Zrotation
    JOINT Chest4
    {
     OFFSET 0.000000 9.552100 0.000000
     CHANNELS 3 Yrotation Xrotation Zrotation
     JOINT Neck
     {
      OFFSET 0.000000 14.453000 0.000000
      CHANNELS 3 Yrotation Xrotation Zrotation
      JOINT Head
      {
       OFFSET 0.000000 8.936500 -0.011300
       CHANNELS 3 Yrotation Xrotation Zrotation
       End Site
       {
        OFFSET 0.000000 17.073600 -0.006000
       }
      }
     }
     JOINT RightCollar
     {
      OFFSET -2.921100 9.558500 0.000000
      CHANNELS 3 Yrotation Xrotation Zrotation
      JOINT RightShoulder
      {
       OFFSET -13.519700 0.000000 0.000000
       CHANNELS 3 Yrotation Xrotation Zrotation
       JOINT RightElbow
       {
        OFFSET 0.000000 -29.696600 0.000000
        CHANNELS 3 Yrotation Xrotation Zrotation
        JOINT RightWrist
        {
         OFFSET 0.000000 -24.004700 0.000000
         CHANNELS 3 Yrotation Xrotation Zrotation
         End Site
         {
          OFFSET 0.000000 -17.728500 0.000000
         }
        }
       }
      }
     }
     JOINT LeftCollar
     {
      OFFSET 2.921100 9.558500 0.000000
      CHANNELS 3 Yrotation Xrotation Zrotation
      JOINT LeftShoulder
      {
       OFFSET 13.519700 0.000000 0.000000
       CHANNELS 3 Yrotation Xrotation Zrotation
       JOINT LeftElbow
       {
        OFFSET 0.000000 -29.696600 0.000000
        CHANNELS 3 Yrotation Xrotation Zrotation
        JOINT LeftWrist
        {
         OFFSET 0.000000 -24.004700 0.000000
         CHANNELS 3 Yrotation Xrotation Zrotation
         End Site
         {
          OFFSET 0.000000 -17.728500 0.000000
         }
        }
       }
      }
     }
    }
   }
  }
 }
 JOINT RightHip
 {
  OFFSET -7.771700 -0.012900 -0.001300
  CHANNELS 3 Yrotation Xrotation Zrotation
  JOINT RightKnee
  {
   OFFSET 0.000000 -40.869800 0.001200
   CHANNELS 3 Yrotation Xrotation Zrotation
   JOINT RightAnkle
   {
    OFFSET 0.000000 -39.717900 0.002100
    CHANNELS 3 Yrotation Xrotation Zrotation
    JOINT RightToe
    {
     OFFSET 0.000000 -4.965400 11.033500
     CHANNELS 3 Yrotation Xrotation Zrotation
     End Site
     {
      OFFSET 0.000000 -1.423100 5.872300
     }
    }
   }
  }
 }
 JOINT LeftHip
 {
  OFFSET 7.771700 -0.012900 -0.001300
  CHANNELS 3 Yrotation Xrotation Zrotation
  JOINT LeftKnee
  {
   OFFSET 0.000000 -40.869800 0.001200
   CHANNELS 3 Yrotation Xrotation Zrotation
   JOINT LeftAnkle
   {
    OFFSET 0.000000 -39.717900 0.002100
    CHANNELS 3 Yrotation Xrotation Zrotation
    JOINT LeftToe
    {
     OFFSET 0.000000 -4.965400 11.033500
     CHANNELS 3 Yrotation Xrotation Zrotation
     End Site
     {
      OFFSET 0.000000 -1.423100 5.872300
     }
    }
   }
  }
 }
}
MOTION
Frames: 8
Frame Time: 0.008333
-24.681042 57.930243 13.487201 178.173592 -51.888014 -3.698108 3.066467 21.534742 2.899848 1.576496 12.309121 1.576430 1.995633 15.428627 2.032074 1.561172 12.328993 1.573434 2.767950 16.504284 5.710719 3.096086 -5.079303 9.712860 6.030458 0.446376 1.599505 9.014059 -29.343316 -15.934547 47.118622 -48.292484 -14.430684 28.534267 10.326326 10.560638 -10.163995 -1.428958 -2.133015 -11.348236 -28.294959 17.186217 -51.482824 -46.430495 21.798902 -23.970063 4.751654 -11.045243 2.519843 -19.805082 -3.712424 -34.543343 72.473852 -38.124498 7.068504 -11.351762 11.814617 -0.043390 -0.208713 -0.082519 -4.297684 -17.231104 6.601969 85.445313 83.918320 84.857660 -0.219304 -22.265069 -16.103562 0.086461 0.080560 0.045984
-24.676523 57.932302 13.487607 178.161955 -51.881973 -3.722223 3.081574 21.532183 2.931316 1.560608 12.329345 1.573303 1.994536 15.431042 2.034183 1.561910 12.331747 1.576578 2.773791 16.501309 5.722085 3.105115 -5.095093 9.704238 6.036924 0.455401 1.582182 8.975659 -29.333112 -15.945091 47.076129 -48.366796 -14.382812 28.561893 10.327644 10.570359 -10.160257 -1.438682 -2.135895 -11.310945 -28.290214 17.156139 -51.526513 -46.448867 21.842174 -23.950496 4.737375 -11.056122 2.498821 -19.814009 -3.688775 -34.556296 72.467244 -38.115233 7.071174 -11.335945 11.799613 -0.026414 -0.204274 -0.085698 -4.300673 -17.233647 6.627157 85.465370 83.947700 84.904075 -0.190194 -22.270480 -16.125652 0.101538 0.074856 0.048544
-24.666578 57.933842 13.490174 178.137507 -51.868165 -3.760291 3.093813 21.537225 2.970398 1.562218 12.331748 1.576681 1.999287 15.434702 2.038254 1.563321 12.334464 1.579709 2.776074 16.496726 5.734424 3.114395 -5.108642 9.696860 6.035618 0.464103 1.568016 8.963844 -29.328259 -15.961375 47.028304 -48.424663 -14.342700 28.583281 10.325216 10.580386 -10.147567 -1.462840 -2.142519 -11.293098 -28.275623 17.133992 -51.578104 -46.490222 21.853215 -23.939695 4.733762 -11.040041 2.487376 -19.831625 -3.640543 -34.546208 72.456402 -38.040924 7.047796 -11.314551 11.740574 0.029793 -0.179919 -0.064371 -4.311437 -17.240815 6.676910 85.459838 83.943908 84.903925 -0.152341 -22.272357 -16.133912 0.078220 0.082430 0.036385
-24.656380 57.933756 13.495415 178.088374 -51.839030 -3.771164 3.122341 21.526195 3.005336 1.542021 12.358561 1.568439 2.023589 15.414576 2.044885 1.565422 12.337731 1.582910 2.764948 16.518878 5.772215 3.129411 -5.137341 9.686504 6.034625 0.467773 1.551294 8.952496 -29.319196 -15.970879 47.025270 -48.474563 -14.342758 28.547495 10.336882 10.603015 -10.152096 -1.470353 -2.138060 -11.267940 -28.284946 17.113943 -51.607442 -46.508564 21.866471 -23.938825 4.733773 -11.028474 2.481584 -19.868151 -3.605299 -34.447714 72.461931 -37.911737 7.047917 -11.304361 11.697602 0.028379 -0.157280 -0.049767 -4.301373 -17.267191 6.726104 85.464017 83.946753 84.916595 -0.132508 -22.272573 -16.129890 0.064444 0.085003 0.020137
-24.643808 57.936307 13.500272 178.057114 -51.824239 -3.799665 3.139021 21.529679 3.037593 1.553333 12.354067 1.576271 2.025611 15.417887 2.047801 1.570662 12.333196 1.583652 2.758183 16.529200 5.788604 3.107876 -5.124079 9.757620 6.027647 0.485486 1.544479 8.938689 -29.310646 -15.978652 47.029895 -48.520855 -14.350606 28.477731 10.368132 10.605959 -10.163520 -1.466232 -2.130896 -11.250583 -28.295600 17.102559 -51.619822 -46.517756 21.876446 -23.941439 4.721517 -11.024941 2.466799 -19.883501 -3.562157 -34.327559 72.460862 -37.756404 7.036233 -11.299311 11.652503 0.036570 -0.129952 -0.036392 -4.300464 -17.277901 6.778777 85.482720 83.957182 84.951080 -0.106432 -22.273840 -16.143565 0.051183 0.085330 0.016546
-24.632563 57.940123 13.505330 178.055078 -51.813314 -3.832340 3.136951 21.535467 3.055953 1.567392 12.341371 1.585679 2.026045 15.418988 2.048653 1.567312 12.341346 1.585774 2.757149 16.527069 5.793853 3.092659 -5.117559 9.792837 6.009060 0.505935 1.534201 8.949593 -29.324567 -15.980461 46.987445 -48.542351 -14.328514 28.488867 10.368129 10.605473 -10.180781 -1.461681 -2.121998 -11.238259 -28.303909 17.095391 -51.623333 -46.526265 21.887870 -23.943255 4.712772 -11.023072 2.442001 -19.892029 -3.533325 -34.245607 72.460399 -37.657627 7.028648 -11.365529 11.613376 0.012851 -0.054306 -0.012134 -4.310936 -17.284068 6.810655 85.476113 83.961346 84.959198 -0.082740 -22.248573 -16.152154 0.028661 0.063199 0.008222
-24.622943 57.945376 13.510179 178.043302 -51.808968 -3.836947 3.130367 21.545188 3.051074 1.568405 12.344833 1.586957 2.027567 15.423473 2.050242 1.568485 12.344831 1.586919 2.765728 16.513988 5.796202 3.075212 -5.109484 9.825781 6.019570 0.492727 1.522995 8.941953 -29.315392 -15.980970 46.925987 -48.547710 -14.304320 28.528513 10.336299 10.608642 -10.183562 -1.468508 -2.118335 -11.238708 -28.308195 17.096361 -51.634375 -46.557466 21.860716 -23.945074 4.747210 -10.987324 2.417587 -19.884088 -3.526441 -34.111699 72.454116 -37.517029 7.033214 -11.410882 11.570307 -0.006420 0.000540 0.002458 -4.306601 -17.286287 6.817122 85.457598 83.960668 84.958543 -0.076384 -22.245537 -16.154220 0.029027 0.059554 -0.002209
-24.606707 57.951414 13.515957 178.022157 -51.803690 -3.864251 3.124017 21.564906 3.053744 1.575062 12.352330 1.587361 2.035979 15.432845 2.050890 1.591362 12.327657 1.595758 2.749594 16.529377 5.817014 3.081685 -5.126194 9.836756 6.018872 0.489136 1.517178 8.926740 -29.300623 -15.982947 46.918782 -48.571662 -14.314678 28.514029 10.325330 10.599651 -10.199258 -1.478636 -2.111343 -11.220934 -28.318500 17.100397 -51.631602 -46.566051 21.852549 -23.955443 4.739159 -10.982716 2.402182 -19.880252 -3.481806 -33.992863 72.446407 -37.357095 7.014007 -11.453558 11.491413 -0.007367 0.049014 0.031077 -4.305542 -17.284652 6.854240 85.441219 83.962643 84.969887 -0.055287 -22.248123 -16.177790 0.026799 0.059125 -0.006482
